<svg xmlns="http://www.w3.org/2000/svg" width="40" height="40" viewBox="0 0 40 40"><defs><style>.a{fill:#e3fcef;}.b{fill:#4cc85c;}</style></defs><g transform="translate(-985 -485)"><rect class="a" width="40" height="40" rx="8" transform="translate(985 485)"/><path class="b" d="M.057,24l1.7-6.163A11.889,11.889,0,0,1,12.107,0,11.9,11.9,0,1,1,6.392,22.346L.057,24Zm6.628-3.807A10.056,10.056,0,0,0,12.1,21.785a9.879,9.879,0,1,0-8.174-4.259l-1,3.648,3.76-.981Zm11.441-5.464c-.074-.124-.273-.2-.573-.347s-1.766-.868-2.041-.967-.472-.149-.672.149-.772.967-.945,1.165-.349.223-.647.074a8.158,8.158,0,0,1-2.4-1.475,8.952,8.952,0,0,1-1.661-2.059c-.174-.3-.018-.458.131-.606.135-.133.3-.347.448-.521a1.948,1.948,0,0,0,.3-.495.544.544,0,0,0-.025-.521c-.075-.148-.672-1.611-.92-2.206-.243-.579-.489-.5-.672-.51L7.876,6.4a1.1,1.1,0,0,0-.8.372A3.328,3.328,0,0,0,6.035,9.251a5.769,5.769,0,0,0,1.219,3.074,13.287,13.287,0,0,0,5.1,4.487,17.33,17.33,0,0,0,1.7.626,4.123,4.123,0,0,0,1.881.118,3.075,3.075,0,0,0,2.016-1.413,2.465,2.465,0,0,0,.174-1.414Z" transform="translate(992.943 493)"/></g></svg>