<svg xmlns="http://www.w3.org/2000/svg" width="111.005" height="100" viewBox="0 0 111.005 100">
    <defs>
        <style>
            .cls-1{fill:#3d75b5}.cls-2{clip-path:url(#clip-path)}.cls-3{fill:#8f76ff}.cls-4{fill:#edd6c0}.cls-5{fill:#03bbc7}.cls-6{fill:#324082}.cls-7{fill:#1dd5e1}.cls-8{fill:#182668}.cls-9{fill:#684fe0}.cls-10{fill:#dcc0af}.cls-11{fill:#e75e98}.cls-12{fill:#cd447e}.cls-13{fill:#456adf}.cls-14{fill:#5f84f9}
        </style>
        <clipPath id="clip-path">
            <path id="Rectangle_3203" d="M0 0h111.005v100H0z" class="cls-1" data-name="Rectangle 3203"/>
        </clipPath>
    </defs>
    <g id="Mask_Group_12" class="cls-2" data-name="Mask Group 12">
        <g id="Group_6549" data-name="Group 6549" transform="translate(-21.531 2.871)">
            <g id="Group_6547" data-name="Group 6547" transform="translate(65.319)">
                <g id="Group_6544" data-name="Group 6544" transform="translate(0 10.445)">
                    <path id="Path_110" d="M292.073 276.323c.733 4.132 1.13 8.6.231 12.62l-.572.176c-5.712 1.718-11.759 2.627-17.637 1.663a25.366 25.366 0 0 1-9.049-3.305 21.976 21.976 0 0 1-3.013-2.2l-.424-13.732c-.069-2.266-.059-4.652-.145-7.038a11.424 11.424 0 0 1 2.273-1.7c4.132-2.283 9.211-.981 13.928-1.03a11.843 11.843 0 0 0 6.436-1.636 12.069 12.069 0 0 0 3.691-4.325c3.557-6.356 4.284-13.932 6.443-20.866a25.929 25.929 0 0 0 10.017-14.15 40.7 40.7 0 0 0 1.608-11.387 57.659 57.659 0 0 0 5.7-.727c.238-.041.472-.086.709-.131a58.662 58.662 0 0 1-.84 13.067A46.532 46.532 0 0 1 306.587 237l-.141.258c-1.411 1.415-2.875 2.779-4.314 4.132-4.879 4.59-9.848 9.707-11.408 16.328-1.433 6.099.254 12.438 1.349 18.605z" class="cls-3" data-name="Path 110" transform="translate(-248.51 -198.681)"/>
                    <path id="Path_111" d="M271.265 180.777a57.882 57.882 0 0 1-5.7.727 40.624 40.624 0 0 0-.344-5.633 2.934 2.934 0 0 1 .854-2.83 2.245 2.245 0 0 1 2.789.534c1.081 1.14 1.395 3.061 1.835 4.538a17.063 17.063 0 0 1 .566 2.664z" class="cls-4" data-name="Path 111" transform="translate(-208.217 -170.775)"/>
                    <path id="Path_112" d="M293.6 997.575a39.735 39.735 0 0 1-.093 2.128c-2.362.186-8.815.8-13.739.916a40.567 40.567 0 0 1 13.832-3.044z" class="cls-5" data-name="Path 112" transform="translate(-233.776 -813.648)"/>
                    <path id="Path_113" d="M312.157 657.171c.138 1.157.458 3.939.73 7.217q-3.156.233-6.318.262c-.682.007-1.36.007-2.042 0-4.921-18.921-6.653-24.506-10.151-38.193-2.293-8.977-3.85-17.871-6.721-26.262a61.471 61.471 0 0 0-5.885-12.706c.007-.158.007-.317.007-.475q2.551-.284 5.075-.747c3.123-.568 6.226-1.343 9.342-1.969a54.212 54.212 0 0 1 6.862-1.006c.028 1.7.155 3.4.227 5.093q.387 8.925 1.195 17.822 1.607 17.783 4.879 35.356a1613.85 1613.85 0 0 1 2.8 15.578.079.079 0 0 0 0 .03z" class="cls-6" data-name="Path 113" transform="translate(-253.499 -490.757)"/>
                    <path id="Path_114" d="M285.593 956.806a2.532 2.532 0 0 1-2.2.864 1.819 1.819 0 0 1-.9-.509c-.523-.527-.826-1.281-1.546-1.608a1.979 1.979 0 0 0-.289-.107 89.433 89.433 0 0 0-.3-4.28q3.161-.027 6.319-.262c.121 1.446.23 2.985.31 4.525a12.045 12.045 0 0 0-1.394 1.377z" class="cls-4" data-name="Path 114" transform="translate(-227.296 -777.272)"/>
                    <path id="Path_115" d="M296.007 973.657a2.531 2.531 0 0 0 2.2-.864 11.976 11.976 0 0 1 1.4-1.377c.107 2 .166 3.991.131 5.771a40.577 40.577 0 0 0-13.832 3.043c-3.385.083-6.05-.068-6.17-.754-.062-.348.186-.636.516-.867a4 4 0 0 1 .572-.321c.968-.451 2.207-.9 3.454-1.395a7.38 7.38 0 0 0 4.19.789 8.251 8.251 0 0 0 3.753-1.9 26.675 26.675 0 0 0 2.889-2.638 1.82 1.82 0 0 0 .897.513z" class="cls-7" data-name="Path 115" transform="translate(-239.91 -793.259)"/>
                    <path id="Path_116" d="M309.748 971.2a1.968 1.968 0 0 1 .289.107c.72.327 1.023 1.081 1.546 1.608a26.7 26.7 0 0 1-2.889 2.638 8.248 8.248 0 0 1-3.753 1.9 7.379 7.379 0 0 1-4.19-.788 13.447 13.447 0 0 0 4.745-2.706c.441-.479.775-1.03 1.219-1.5a3.18 3.18 0 0 1 3.033-1.259z" class="cls-5" data-name="Path 116" transform="translate(-256.382 -793.029)"/>
                    <path id="Path_117" d="M332.759 565.017c-.01.4-.028.8-.059 1.2-.069.94-.082 1.887-.065 2.837a54.257 54.257 0 0 0-6.862 1.005 16.183 16.183 0 0 0 1.1-3.281c1.953-.611 3.895-1.286 5.886-1.761z" class="cls-8" data-name="Path 117" transform="translate(-283.077 -476.51)"/>
                    <path id="Path_118" d="M290.49 390.381c.9-4.018.5-8.488-.231-12.62-1.1-6.167-2.782-12.506-1.35-18.6 1.56-6.621 6.528-11.738 11.407-16.328 1.439-1.353 2.9-2.717 4.315-4.132-3.147 5.716-7.758 10.637-9.772 16.876-1.846 5.713-1.3 11.942-.362 17.885.8 5.027 1.88 10.065 2 15.137a1.125 1.125 0 0 0-.121.028c-1.989.473-3.931 1.148-5.886 1.754z" class="cls-9" data-name="Path 118" transform="translate(-246.696 -300.118)"/>
                    <path id="Path_119" d="M397.4 679.624c-3.529-26.018 1.511-51.44 1.766-77.3a61.45 61.45 0 0 1 5.885 12.706c-2.414 21.951-6.332 43.365-2.637 65.085a24.89 24.89 0 0 1-1.157-.059q-1.933-.13-3.857-.432z" class="cls-8" data-name="Path 119" transform="translate(-370.899 -505.586)"/>
                    <path id="Path_120" d="M379.325 567.971l.572-.176a16.194 16.194 0 0 1-1.1 3.281c-3.116.627-6.219 1.4-9.342 1.969q-2.52.465-5.075.747l-.282.031a73.748 73.748 0 0 1-11.635.33q.057-3.925.176-7.826a25.374 25.374 0 0 0 9.049 3.305c5.878.968 11.925.057 17.637-1.661z" class="cls-8" data-name="Path 120" transform="translate(-336.103 -477.533)"/>
                    <path id="Path_121" d="M423.08 600.168c0 .158 0 .317-.007.475-.089-.148-.182-.3-.275-.444z" class="cls-6" data-name="Path 121" transform="translate(-394.802 -503.907)"/>
                    <path id="Path_122" d="M415.781 957.766a1.755 1.755 0 0 1-.868-.561c-.5-.554-.758-1.325-1.46-1.694a2.468 2.468 0 0 0-.282-.124 99.017 99.017 0 0 0-.082-4.717q1.239.268 2.493.458 1.916.3 3.856.43c.038 1.343.062 2.758.058 4.174a12.278 12.278 0 0 0-1.477 1.3 2.523 2.523 0 0 1-2.238.734z" class="cls-4" data-name="Path 122" transform="translate(-389.077 -777.09)"/>
                    <path id="Path_123" d="M429.653 975.651a2.523 2.523 0 0 0 2.238-.737 12.334 12.334 0 0 1 1.477-1.3c0 2.031-.052 4.06-.186 5.861a61.763 61.763 0 0 0-13.56 2.169c-3.578-.1-6.443-.4-6.529-1.115-.065-.537.589-.9 1.15-1.122.991-.4 2.252-.771 3.526-1.2a7.376 7.376 0 0 0 4.139 1.029 8.234 8.234 0 0 0 3.85-1.68 26.343 26.343 0 0 0 3.027-2.469 1.761 1.761 0 0 0 .868.564z" class="cls-7" data-name="Path 123" transform="translate(-402.949 -794.974)"/>
                    <path id="Path_124" d="M444.88 973.457a26.349 26.349 0 0 1-3.027 2.469 8.232 8.232 0 0 1-3.85 1.68 7.374 7.374 0 0 1-4.139-1.029 13.345 13.345 0 0 0 4.883-2.428c.461-.454.826-.985 1.295-1.432a3.163 3.163 0 0 1 3.1-1.078 2.431 2.431 0 0 1 .282.124c.699.369.96 1.137 1.456 1.694z" class="cls-5" data-name="Path 124" transform="translate(-419.044 -793.342)"/>
                    <path id="Path_125" d="M375.778 323.192a11.844 11.844 0 0 1-6.435 1.635c-4.718.048-9.8-1.253-13.928 1.03a11.424 11.424 0 0 0-2.273 1.7 36.015 36.015 0 0 0-1.326-9.335c-1.408-4.514-4.363-8.309-6.6-12.447q-.821-1.514-1.5-3.1a34.266 34.266 0 0 0 2.345-7.1 21.5 21.5 0 0 1 2.452-6.125c.086.43.182.861.282 1.288a13.741 13.741 0 0 0 3.144 6.639c2.214 2.231 5.458 2.885 8.512 3.378q1.234.2 2.479.382l.417 2.917c.21 1.457.368 2.951.578 4.428.114.789.241 1.574.4 2.345a11.341 11.341 0 0 0 6.831-2.245 10.841 10.841 0 0 0 4.128-6.8 1.97 1.97 0 0 0 .024-.141 24.61 24.61 0 0 0 9.115-2.738 19.943 19.943 0 0 0 1.5-.909c-2.159 6.935-2.886 14.51-6.443 20.866a12.07 12.07 0 0 1-3.702 4.332z" class="cls-9" data-name="Path 125" transform="translate(-340.186 -261.736)"/>
                    <path id="Path_126" d="M413.932 1002.352a61.717 61.717 0 0 1 13.56-2.17 35.03 35.03 0 0 1-.2 2.028c-2.3.048-8.492.279-13.36.142z" class="cls-5" data-name="Path 126" transform="translate(-397.258 -815.68)"/>
                    <path id="Path_127" d="M434.784 600.753c-.255 25.863-5.3 51.285-1.766 77.3q-1.255-.19-2.493-.458c-.424-.09-.847-.189-1.267-.3-1.129-6.05-2.2-12.145-3.034-18.184a390.2 390.2 0 0 1-3.35-58.478 73.745 73.745 0 0 0 11.635-.331c.091.155.185.298.275.451z" class="cls-6" data-name="Path 127" transform="translate(-406.513 -504.017)"/>
                    <path id="Path_128" d="M505.9 165.486c1.388-1.088 5.458-3.309 4.686.279-.358 1.667-.541 2.879-1.04 4.5a40.966 40.966 0 0 0-.458 1.615q-2.779-.367-5.51-1.009c.034-.09.072-.176.11-.262.745-1.704 1.393-3.425 2.212-5.123z" class="cls-4" data-name="Path 128" transform="translate(-500.221 -163.803)"/>
                    <path id="Path_129" d="M514.157 195.862q2.727.64 5.509 1.009a43.524 43.524 0 0 0-.548 19.637 21.485 21.485 0 0 0-2.452 6.126 34.282 34.282 0 0 1-2.345 7.1 43.442 43.442 0 0 1-.164-33.872z" class="cls-3" data-name="Path 129" transform="translate(-510.802 -188.79)"/>
                    <g id="Group_6543" data-name="Group 6543" transform="translate(11.197 9.069)">
                        <path id="Path_130" d="M409.557 210.66c3 5.182.072 10.54-2.142 15.237-.186.5-.372 1-.544 1.5a24.666 24.666 0 0 1-2.314-.324 25.06 25.06 0 0 1 .727-2.82 4.912 4.912 0 0 0 1.343-2.476c.162-1.188-.758-2.589-1.98-2.462a2.53 2.53 0 0 0-1.866 1.794c-.217.565-.365 1.167-.61 1.715l-2.171-.77c1.246-2.359 1.832-6.3-.437-8.316-.523-.313-1.2-1.012-1.9-1.033-2.768.165-5.6 2.458-8.233 2.531a3.967 3.967 0 0 1-2.947-1.147c-2.025-2.434-.544-5.8 1.928-7.083 6.701-3.212 17.148-3.26 21.146 3.654z" class="cls-8" data-name="Path 130" transform="translate(-385.534 -204.913)"/>
                        <path id="Path_131" d="M393.3 339.153a7.4 7.4 0 0 0 1.677 1.253c-.7.076-1.395.124-2.09.152a9.141 9.141 0 0 0 .413-1.405z" class="cls-3" data-name="Path 131" transform="translate(-371.302 -309.54)"/>
                        <path id="Path_132" d="M409.938 326.587a4.737 4.737 0 0 0 1.326 2.541 9.129 9.129 0 0 1-.413 1.4c-.117.007-.238.01-.355.014a55.475 55.475 0 0 1-9.7-.7c-.1-.716-.2-1.429-.306-2.145a46.946 46.946 0 0 0 9.411-1.415c.009.109.023.205.037.305z" class="cls-4" data-name="Path 132" transform="translate(-389.262 -299.515)"/>
                        <path id="Path_133" d="M412.417 343.113a10.194 10.194 0 0 1-2.923 4.184 10.669 10.669 0 0 1-6.133 2.479c-.21-1.477-.368-2.971-.578-4.428l-.417-2.916a55.5 55.5 0 0 0 9.7.7c.114-.009.234-.012.351-.019z" class="cls-4" data-name="Path 133" transform="translate(-390.828 -312.095)"/>
                        <path id="Path_134" d="M412.245 292.607a25.1 25.1 0 0 0-.727 2.82c.764.145 1.539.251 2.314.324a10.4 10.4 0 0 0-.7 4.287 46.965 46.965 0 0 1-9.41 1.415c-.072-.513-.145-1.023-.22-1.536a6.223 6.223 0 0 0 2.255-.868 15.488 15.488 0 0 0 3.033-2.724l2.937-3.154c.173-.185.35-.371.518-.564z" class="cls-10" data-name="Path 134" transform="translate(-392.495 -273.262)"/>
                        <path id="Path_135" d="M399.155 351.749a11.338 11.338 0 0 1-6.832 2.245 40.662 40.662 0 0 1-.4-2.345 10.669 10.669 0 0 0 6.133-2.479 10.193 10.193 0 0 0 2.923-4.184 30.4 30.4 0 0 0 2.09-.152c.069.041.141.082.213.117a10.842 10.842 0 0 1-4.127 6.798z" class="cls-3" data-name="Path 135" transform="translate(-379.391 -313.969)"/>
                        <path id="Path_136" d="M419.779 246.853c1.222-.127 2.142 1.274 1.98 2.462a4.91 4.91 0 0 1-1.343 2.476c-.169.193-.341.379-.513.565l-2.937 3.154a15.494 15.494 0 0 1-3.033 2.724 6.223 6.223 0 0 1-2.255.868 4.383 4.383 0 0 1-1.68-.048 5.071 5.071 0 0 1-3.01-2.276 11.568 11.568 0 0 1-1.374-3.547 37.193 37.193 0 0 1-1.05-10.461c2.638-.072 5.465-2.366 8.233-2.531.7.021 1.374.72 1.9 1.033 2.269 2.014 1.684 5.957.437 8.316l2.173.775c.244-.547.392-1.15.61-1.715a2.531 2.531 0 0 1 1.862-1.795z" class="cls-4" data-name="Path 136" transform="translate(-400.666 -232.445)"/>
                    </g>
                </g>
                <g id="Group_6545" data-name="Group 6545" transform="translate(6.015)">
                    <path id="Path_137" d="M268.515 175.7a11.1 11.1 0 0 1-1.978 1.614 3.745 3.745 0 0 1-.244-.343 9.917 9.917 0 0 1-1.115-3.1 15.076 15.076 0 0 1 1.561-1.123 2.243 2.243 0 0 1 1.143-.417 1.534 1.534 0 0 1 1.38 1.4 2.555 2.555 0 0 1-.747 1.969z" class="cls-4" data-name="Path 137" transform="translate(-212.24 -160.004)"/>
                    <path id="Path_138" d="M298.179 183.122a27.934 27.934 0 0 1-7.82 5.22 39.39 39.39 0 0 1-1.295.251 28.166 28.166 0 0 0-5.895 1.452 10.4 10.4 0 0 0-1.373.683l-.318-.912a6.95 6.95 0 0 0-2.891-3.531c-.761-.425-1.649-.669-2.463-1.027a86.494 86.494 0 0 0 4.373-.665 76.346 76.346 0 0 0 9.462-2.187 23.8 23.8 0 0 0 4.543-1.651 14.761 14.761 0 0 0 2-1.441 9.915 9.915 0 0 0 1.115 3.1 3.754 3.754 0 0 0 .244.343 3.972 3.972 0 0 0 .318.365z" class="cls-7" data-name="Path 138" transform="translate(-243.56 -165.446)"/>
                    <path id="Path_139" d="M323.987 220.24c-1.716.838-3.45 1.6-5.067 2.349-7.25 3.377-1.7 12-2.169 17.813a9.255 9.255 0 0 1-.669 1.965 3.269 3.269 0 0 0-.467-.89 3.732 3.732 0 0 0-1.925-1.555c-.2-.033-.4-.063-.6-.092a22.177 22.177 0 0 0-.853-5.892c-.619-2.664-1.132-5.585.039-8.046a7.756 7.756 0 0 1 3.149-3.266 10.4 10.4 0 0 1 1.373-.683 28.162 28.162 0 0 1 5.895-1.452c.431-.077.863-.159 1.294-.251z" class="cls-5" data-name="Path 139" transform="translate(-277.189 -197.345)"/>
                    <path id="Path_140" d="M351.612 308.341a10.688 10.688 0 0 1 3.846.026c.2.029.4.059.6.092a3.732 3.732 0 0 1 1.925 1.555 3.273 3.273 0 0 1 .467.89 2.331 2.331 0 0 1 .135.935c-.082 1.278-1.67 2.77-2.343 3.794-1.935 2.955-2.463 6.634-2.718 10.188a68.747 68.747 0 0 1-.739 7.843 14.6 14.6 0 0 1-4.533-.262 13.7 13.7 0 0 1-1.32-.347 119.042 119.042 0 0 1 .085-13.764c.085-1.345.067-2.929.223-4.481.233-2.353.867-4.629 2.863-5.862a4.973 4.973 0 0 1 1.5-.606z" class="cls-11" data-name="Path 140" transform="translate(-319.557 -265.882)"/>
                    <path id="Path_141" d="M379.936 198.808a10.91 10.91 0 0 0-3.3-.543c-2.236-.048-4.469.355-6.7.259a8.245 8.245 0 0 1-.994-.1 3.247 3.247 0 0 1-1.737-.813c-1.143-1.123-.209-3.38-.187-4.795a14.753 14.753 0 0 0-.113-2.05 15.679 15.679 0 0 0 .315-2.664 9.468 9.468 0 0 0-2.367-6.882c-2.381-2.435-6.132-2.811-9.193-4.2a22.643 22.643 0 0 1-2.095-2.564c-.729-1.031-1.738-1.869-2.505-2.9a14.545 14.545 0 0 1-.665-.968 5.429 5.429 0 0 0 2.672-2.948 13.907 13.907 0 0 0 2.2 2.438 21.392 21.392 0 0 0 3.139 2.66 25.734 25.734 0 0 0 8.988 3.354 34.43 34.43 0 0 0 3.05.4c.343.03.69.052 1.037.07 0 .1-.007.2-.011.292-.042 1.027.853 1.625 1.787 1.9a4.7 4.7 0 0 0 3.843-.687 7.739 7.739 0 0 0 1.84-1.732q.759-.078 1.518-.177c.814.358 1.7.6 2.462 1.027a6.95 6.95 0 0 1 2.891 3.531l.319.912a7.755 7.755 0 0 0-3.149 3.266c-1.171 2.46-.658 5.382-.039 8.046a22.179 22.179 0 0 1 .853 5.892 10.689 10.689 0 0 0-3.846-.026z" class="cls-7" data-name="Path 141" transform="translate(-347.885 -156.349)"/>
                    <path id="Path_142" d="M377.393 422.529a14.6 14.6 0 0 0 4.533.262 19.438 19.438 0 0 1-.693 2.708c-.1.3-.212.591-.34.879a11.907 11.907 0 0 1-7.805-.225 1.866 1.866 0 0 1 .453-1.134c.821-.879 2.332-.41 3.354-1.027z" class="cls-7" data-name="Path 142" transform="translate(-348.697 -355.01)"/>
                    <path id="Path_143" d="M404.673 307.6c-2 1.234-2.629 3.509-2.863 5.862a13.942 13.942 0 0 0-3.754.6 14.623 14.623 0 0 0-3.782 2.128c-2.686 1.758-4.268 4.78-6.068 7.477a40.324 40.324 0 0 1-5.354 6.454 22.565 22.565 0 0 0-2.626-2.161 21.234 21.234 0 0 0-1.8-1.164q3.477-5.807 6.953-11.618a24.751 24.751 0 0 1 3.139-4.462 18.053 18.053 0 0 1 6.659-4.108 8.3 8.3 0 0 0 .994.1c2.232.1 4.465-.307 6.7-.259a10.913 10.913 0 0 1 3.3.543 4.966 4.966 0 0 0-1.498.608z" class="cls-12" data-name="Path 143" transform="translate(-374.126 -264.534)"/>
                    <path id="Path_144" d="M388.548 178.337a26.43 26.43 0 0 1-3.595 3.576 9.9 9.9 0 0 1-3.875 1.9 10.416 10.416 0 0 0-.1-1.533 5.556 5.556 0 0 0 1.182-.222 10.624 10.624 0 0 0 3.563-2.1 21.979 21.979 0 0 1 2.424-2.239c.272-.166.559-.314.828-.484a4.665 4.665 0 0 1-.262.75c-.053.114-.11.229-.163.347z" class="cls-10" data-name="Path 144" transform="translate(-357.487 -163.828)"/>
                    <path id="Path_145" d="M377.416 127.136c-1.1.181-1.433 2.579-2.7 2.128-1.412-.5.552-2.734.743-3.543.818-3.435-2.54-4.337-5.092-3.687-1.094.281-2.986.935-4.359.632a1.961 1.961 0 0 1-1.6-1.721c-.435-2.353 3.11-3.757 4.816-4.148 1.525-.351 2.99.222 4.5-.041 1.316-.229 2.647-.746 3.673.51.715.879.453 2.065 1.433 2.782.821.595 2.526.646 2.792 1.851s-1.755 2.013-.619 3.118c.421.414 1.054.34 1.3.986.255.676-.237 1.322-.644 1.788a14.837 14.837 0 0 0-2.155 3.424 3.856 3.856 0 0 1-1.992 2.061 6.545 6.545 0 0 1 .768-2.312c.053-.118.11-.233.163-.347a4.672 4.672 0 0 0 .262-.75c.31-1.228.338-2.997-1.289-2.731z" class="cls-6" data-name="Path 145" transform="translate(-347.208 -116.453)"/>
                    <path id="Path_146" d="M390.455 207.061a7.738 7.738 0 0 1-1.84 1.732 4.7 4.7 0 0 1-3.842.687c-.934-.277-1.829-.876-1.787-1.9 0-.1.007-.2.011-.292a46.654 46.654 0 0 0 7.458-.227z" class="cls-4" data-name="Path 146" transform="translate(-359.409 -187.073)"/>
                    <path id="Path_147" d="M389.462 148.289c1.27.451 1.6-1.947 2.7-2.128 1.628-.266 1.6 1.5 1.281 2.726-.269.17-.556.318-.828.484a22 22 0 0 0-2.424 2.239 10.623 10.623 0 0 1-3.563 2.1 5.559 5.559 0 0 1-1.182.222 4.15 4.15 0 0 1-2.753-.724c-1.337-.979-1.889-2.774-2.2-4.47a14.939 14.939 0 0 1 .255-7.048c1.373.3 3.266-.351 4.359-.632 2.551-.65 5.909.251 5.092 3.687-.185.81-2.149 3.041-.737 3.544z" class="cls-4" data-name="Path 147" transform="translate(-361.958 -135.479)"/>
                    <path id="Path_148" d="M384.5 185.8a26.438 26.438 0 0 0 3.595-3.576 6.546 6.546 0 0 0-.768 2.312 2.486 2.486 0 0 0 .541 1.733 3.536 3.536 0 0 0 .732.706c-.163.247-.336.491-.52.728a46.632 46.632 0 0 1-7.459.225v-.225a9.9 9.9 0 0 0 3.879-1.903z" class="cls-4" data-name="Path 148" transform="translate(-357.039 -167.718)"/>
                    <path id="Path_149" d="M445.266 214.372a9.467 9.467 0 0 1 2.367 6.882 15.67 15.67 0 0 1-.315 2.663 14.151 14.151 0 0 0-1.019-3.783 21.2 21.2 0 0 0-3-4.477c-.977-1.289-2.137-1.725-3.524-2.523a16.458 16.458 0 0 1-3.7-2.959c3.059 1.385 6.81 1.762 9.191 4.197z" class="cls-5" data-name="Path 149" transform="translate(-428.303 -189.5)"/>
                    <path id="Path_150" d="M488.411 403.5a5.521 5.521 0 0 0 1.854-.946 22.6 22.6 0 0 1 2.625 2.161 38.744 38.744 0 0 1-3.4 2.97 14.244 14.244 0 0 1-5.329-5.2 2.3 2.3 0 0 1 .987-.321c1.08-.135 2.315.863 3.263 1.336z" class="cls-7" data-name="Path 150" transform="translate(-484.165 -339.124)"/>
                    <path id="Path_151" d="M503.971 154.461a9.5 9.5 0 0 0 .729 1.212 5.429 5.429 0 0 1-2.671 2.948 16.2 16.2 0 0 1-1.288-2.442 4.371 4.371 0 0 1-.457-2.331 1.747 1.747 0 0 1 1.536-1.563 1.8 1.8 0 0 1 1.355.757 8.092 8.092 0 0 1 .796 1.419z" class="cls-4" data-name="Path 151" transform="translate(-499.523 -144.381)"/>
                </g>
                <g id="Group_6546" data-name="Group 6546" transform="translate(11.197 19.514)">
                    <path id="Path_152" d="M409.557 210.66c3 5.182.072 10.54-2.142 15.237-.186.5-.372 1-.544 1.5a24.666 24.666 0 0 1-2.314-.324 25.06 25.06 0 0 1 .727-2.82 4.912 4.912 0 0 0 1.343-2.476c.162-1.188-.758-2.589-1.98-2.462a2.53 2.53 0 0 0-1.866 1.794c-.217.565-.365 1.167-.61 1.715l-2.171-.77c1.246-2.359 1.832-6.3-.437-8.316-.523-.313-1.2-1.012-1.9-1.033-2.768.165-5.6 2.458-8.233 2.531a3.967 3.967 0 0 1-2.947-1.147c-2.025-2.434-.544-5.8 1.928-7.083 6.701-3.212 17.148-3.26 21.146 3.654z" class="cls-8" data-name="Path 152" transform="translate(-385.534 -204.913)"/>
                    <path id="Path_153" d="M411.269 330.533c.076-.2.143-.4.2-.606l.116-.9a4.713 4.713 0 0 1-1.233-2.441c-.014-.1-.028-.2-.034-.3a46.942 46.942 0 0 1-9.411 1.415c.1.716.2 1.429.306 2.145a55.476 55.476 0 0 0 9.7.7c.119-.002.239-.006.356-.013z" class="cls-4" data-name="Path 153" transform="translate(-389.681 -299.515)"/>
                    <path id="Path_154" d="M412.417 343.113a10.194 10.194 0 0 1-2.923 4.184 10.669 10.669 0 0 1-6.133 2.479c-.21-1.477-.368-2.971-.578-4.428l-.417-2.916a55.5 55.5 0 0 0 9.7.7c.114-.009.234-.012.351-.019z" class="cls-4" data-name="Path 154" transform="translate(-390.828 -312.095)"/>
                    <path id="Path_155" d="M412.245 292.607a25.1 25.1 0 0 0-.727 2.82c.764.145 1.539.251 2.314.324a10.4 10.4 0 0 0-.7 4.287 46.965 46.965 0 0 1-9.41 1.415c-.072-.513-.145-1.023-.22-1.536a6.223 6.223 0 0 0 2.255-.868 15.488 15.488 0 0 0 3.033-2.724l2.937-3.154c.173-.185.35-.371.518-.564z" class="cls-10" data-name="Path 155" transform="translate(-392.495 -273.262)"/>
                    <path id="Path_156" d="M410.387 351.014c.133-1.846.349-3.686.583-5.524l-.128.007a10.192 10.192 0 0 1-2.923 4.184 10.668 10.668 0 0 1-6.133 2.479c.114.789.241 1.574.4 2.345a11.34 11.34 0 0 0 6.831-2.245 10.469 10.469 0 0 0 1.37-1.246z" class="cls-3" data-name="Path 156" transform="translate(-389.254 -314.479)"/>
                    <path id="Path_157" d="M419.779 246.853c1.222-.127 2.142 1.274 1.98 2.462a4.91 4.91 0 0 1-1.343 2.476c-.169.193-.341.379-.513.565l-2.937 3.154a15.494 15.494 0 0 1-3.033 2.724 6.223 6.223 0 0 1-2.255.868 4.383 4.383 0 0 1-1.68-.048 5.071 5.071 0 0 1-3.01-2.276 11.568 11.568 0 0 1-1.374-3.547 37.193 37.193 0 0 1-1.05-10.461c2.638-.072 5.465-2.366 8.233-2.531.7.021 1.374.72 1.9 1.033 2.269 2.014 1.684 5.957.437 8.316l2.173.775c.244-.547.392-1.15.61-1.715a2.531 2.531 0 0 1 1.862-1.795z" class="cls-4" data-name="Path 157" transform="translate(-400.666 -232.445)"/>
                </g>
            </g>
            <g id="Group_6548" data-name="Group 6548" transform="translate(0 36.767)">
                <path id="Path_158" d="M821.057 894.1a6.947 6.947 0 0 1-1.9-3.088 9.091 9.091 0 0 1 .647-5.326 20.292 20.292 0 0 0 1.54-5.231 5.889 5.889 0 0 0-.423-2.741 6.1 6.1 0 0 0-4.262.311 2.64 2.64 0 0 0-1.474 3.119c.675 2.52-.257 5.085-.6 8.434-.418 4.074 3.788 8.253 5.945 8.952s.758-1.983.758-1.983a56.697 56.697 0 0 1-.231-2.447z" class="cls-7" data-name="Path 158" transform="translate(-814.549 -746.357)"/>
                <path id="Path_159" d="M707.066 791.776c.01-.672.03-1.346.062-2.018a12.153 12.153 0 0 1-4.324-1.042c-6.6 7.462-14.928 16.807-16.345 18.049-2.177 1.9-2.95 1.977-2.95 1.977a6.968 6.968 0 0 0-.579-.2 5.893 5.893 0 0 1 .423 2.741 20.3 20.3 0 0 1-1.54 5.231 9.094 9.094 0 0 0-.647 5.326 6.956 6.956 0 0 0 1.9 3.089c-.338-4.96.5-6.12 3.225-9.6a67.376 67.376 0 0 1 5.554-5.371l21.355-19.649c-.6-.113-1.2-.206-1.815-.265-.85-.089-1.676-.13-2.482-.173a7.429 7.429 0 0 1-1.4 1.917z" class="cls-4" data-name="Path 159" transform="translate(-676.563 -677.184)"/>
                <path id="Path_160" d="M649.5 628.879a45.376 45.376 0 0 1 5.181 1.381 41.3 41.3 0 0 1 2.309-7.6c1.541-3.726 3.644-7.33 4.124-11.306.691-5.7-2.05-11.166-4.329-16.436-1.818-4.2-3.369-8.905-2.736-13.323a17.267 17.267 0 0 0-1.372 2.031c-3.289 5.7-4.426 12.228-7.651 17.965a24.647 24.647 0 0 1-6.655 7.833c-3.129 2.308-6.893 1.427-10.474 1.521-.269.011.559 3.945.62 4.238.475 2.216.519 4.065 1.971 5.952.179.234.368.455.566.67a15.552 15.552 0 0 0 11.962-4.62c2.032-2.109 3.467-4.815 5.862-6.5a2.617 2.617 0 0 1 2.739-.491c1.138.694.851 2.4.368 3.643-.763 1.952-1.657 3.853-2.556 5.747l-3.54 7.483c-.218.46-.437.923-.685 1.375.806.042 1.632.083 2.482.172.614.059 1.214.152 1.814.265z" class="cls-13" data-name="Path 160" transform="translate(-612.857 -515.755)"/>
                <path id="Path_161" d="M667.8 722.04a13.986 13.986 0 0 0 2.48 2.091c1.428.976 2.983 1.788 4.445 2.755a9.327 9.327 0 0 0 1.121.635 12.157 12.157 0 0 0 4.323 1.042c.582.048 1.177.078 1.779.113.248-.452.468-.915.685-1.375q1.773-3.742 3.54-7.483c.9-1.9 1.793-3.8 2.556-5.748.483-1.24.769-2.949-.368-3.643a2.616 2.616 0 0 0-2.739.491c-2.394 1.688-3.83 4.394-5.862 6.5a15.551 15.551 0 0 1-11.96 4.622z" class="cls-14" data-name="Path 161" transform="translate(-649.603 -615.988)"/>
                <path id="Path_162" d="M700.464 795.458l.444.01a7.426 7.426 0 0 0 1.4-1.916c-.6-.035-1.2-.065-1.779-.113a56.709 56.709 0 0 0-.065 2.019z" class="cls-4" data-name="Path 162" transform="translate(-669.961 -680.865)"/>
                <path id="Path_163" d="M580.443 288.249a1.963 1.963 0 0 0 .781-.908 2.194 2.194 0 0 0-.471-2.117c-1.731-2.1-5.725-2.347-8.2-1.928-4.658.8-8.774 1.132-11.671 4.773-1.134 1.423-1.832 3.171-3.176 4.414-2.316 2.145-6.113 2.405-8.12 4.826-2.929 3.527-.232 9.164-2.625 13.046-1.555 2.523-4.75 3.508-7.218 5.219a12.676 12.676 0 0 0-5.451 10.149 8.278 8.278 0 0 0 .086 1.232c.419 3 2.4 5.949 5.448 6.137 1.726.106 3.847-.571 4.933.721s0 3.155-.31 4.794c-.493 2.589 1.21 5.123 3.524 6.529.07-.119.143-.237.22-.351 1.472-2.216 3.62-3.933 5.253-6.031 3.814-4.9 3.838-10.851 1.955-16.383-1.3-3.809-5.314-7.62-.8-11.255 3.791-3.05 9.644.027 13.947-2.367a22.355 22.355 0 0 0 1.2-1.95c2.517-4.59 1.589-7.028 1.589-7.028s-3.7-2.789-2.245-4.187c1.368-1.318 3.26.345 3.463.533-.555-.565.338-3 .371-3.709.083-1.8.661-2.676 2.674-3.112 1.286-.279 2.642-.229 3.9-.617a3.631 3.631 0 0 0 .943-.43z" class="cls-11" data-name="Path 163" transform="translate(-512.334 -283.124)"/>
                <path id="Path_164" d="M603.466 433.981a5.25 5.25 0 0 0 .337-.345c1.781-1.992 2.475-5.415 2.724-8.335.013-.131.03-.26.032-.392a35.5 35.5 0 0 0 .023-4.922c.639-6.926.728-10.306 1.837-13.4a23.769 23.769 0 0 1 3.648-6.258c.256-.347.5-.689.721-1.017a.171.171 0 0 0 .018-.029c-4.3 2.394-10.157-.683-13.947 2.367-4.515 3.636-.5 7.447.8 11.255 1.883 5.532 1.859 11.482-1.955 16.383-1.634 2.1-3.782 3.815-5.253 6.031-.077.113-.15.232-.22.35.255.153.518.294.784.419a15.229 15.229 0 0 0 5.274 1.242c.454.038.913.065 1.368.084 1.135-1.123 2.373-2.168 3.656-3.291a2.05 2.05 0 0 0 .153-.142z" class="cls-12" data-name="Path 164" transform="translate(-556.593 -373.657)"/>
                <path id="Path_165" d="M544.437 609.365c.195-.069.392-.142.586-.211 1.791-.627 3.6-.973 5.422-1.451 2.323-.609 1.8-1.445 1.453-3.792a46.084 46.084 0 0 0-3.685-11.548c-2-4.58-4.275-9.078-5.565-13.9a58.84 58.84 0 0 1-7.489-10.359c-2.3-4.081-4.239-8.64-7.918-11.519-.05.05-.1.1-.15.142-1.283 1.123-2.522 2.167-3.656 3.291a21.968 21.968 0 0 0-1.871 2.085h-.007c-.632 4.418.918 9.121 2.737 13.323 2.279 5.27 5.021 10.732 4.329 16.436-.48 3.976-2.583 7.579-4.124 11.306a41.376 41.376 0 0 0-2.309 7.6c3.567 1.117 7.113 2.286 11.17 1.872.63-.066 1.249-.16 1.869-.283a64.252 64.252 0 0 0 9.208-2.992z" class="cls-14" data-name="Path 165" transform="translate(-480.362 -496.258)"/>
                <path id="Path_166" d="M513.534 972.386a2.584 2.584 0 0 0 1.37 3.132c2.381 1.2 3.7 3.573 6.011 6.053 2.817 3.016 8.872 2.789 10.875 1.71s-.994-1.863-.994-1.863a62.677 62.677 0 0 1-2.008-1.466 7.522 7.522 0 0 1-3.656-.7 9.236 9.236 0 0 1-3.615-4.02 20.332 20.332 0 0 0-2.929-4.588 6.192 6.192 0 0 0-2.369-1.52 5.833 5.833 0 0 0-2.685 3.262z" class="cls-7" data-name="Path 166" transform="translate(-458.869 -817.796)"/>
                <path id="Path_167" d="M533.171 833.795a6.325 6.325 0 0 0-.544.284A6.206 6.206 0 0 1 535 835.6a20.336 20.336 0 0 1 2.929 4.588 9.232 9.232 0 0 0 3.615 4.019 7.52 7.52 0 0 0 3.655.7c-4.015-3.067-4.323-4.445-5.112-8.715a64.594 64.594 0 0 1-.3-7.554l-.431-32.779a64.273 64.273 0 0 1-9.209 2.986c1.132 9.126 3.565 29.117 3.534 31.524-.04 2.82-.51 3.426-.51 3.426z" class="cls-4" data-name="Path 167" transform="translate(-475.277 -682.749)"/>
                <path id="Path_168" d="M567.812 556.383q-1.391-.64-2.726-1.384a5.25 5.25 0 0 1-.337.345c3.679 2.88 5.617 7.439 7.918 11.52a58.869 58.869 0 0 0 7.49 10.359 23.802 23.802 0 0 1-.169-.625c-1.408-5.64-.717-11.047-.093-16.655a43.212 43.212 0 0 1-12.083-3.56z" class="cls-13" data-name="Path 168" transform="translate(-517.869 -495.025)"/>
                <path id="Path_169" d="M606.823 459.437q1.337.747 2.726 1.384c2.3-2.8 3.092-6.626 3.058-10.268-.034-3.816-.862-7.577-1.241-11.373a26.987 26.987 0 0 1 .073-6.79c-1.109 3.091-1.2 6.471-1.836 13.4a35.5 35.5 0 0 1-.023 4.922c0 .133-.02.261-.032.392-.248 2.918-.948 6.34-2.725 8.333z" class="cls-8" data-name="Path 169" transform="translate(-559.606 -399.462)"/>
                <path id="Path_170" d="M536.42 392.393a.153.153 0 0 1-.018.029c-.221.328-.465.67-.721 1.017a23.75 23.75 0 0 0-3.648 6.258 27.018 27.018 0 0 0-.073 6.79c.379 3.8 1.207 7.556 1.241 11.373.034 3.643-.758 7.469-3.058 10.269a43.219 43.219 0 0 0 12.08 3.562c.046-.408.092-.815.134-1.225.572-5.313 1.8-11.194 4.48-15.792.829-1.422 2.365-2.8 2.933-4.308a6.248 6.248 0 0 0 .348-1.952 5.917 5.917 0 0 0-3.2-.842c-1.564 0-3.109.361-4.671.349a7.547 7.547 0 0 1-6.431-3.322 5.241 5.241 0 0 1 .992-6.639 10.553 10.553 0 0 1 4.351-2.6c.161-.057.318-.116.48-.167a11.2 11.2 0 0 1-4.023-4.748 22.639 22.639 0 0 1-1.196 1.948z" class="cls-6" data-name="Path 170" transform="translate(-480.2 -366.769)"/>
                <path id="Path_171" d="M531.859 424.515a5.241 5.241 0 0 0-.992 6.639 7.547 7.547 0 0 0 6.431 3.322c1.562.012 3.107-.354 4.671-.349a5.917 5.917 0 0 1 3.2.842 10.623 10.623 0 0 0-.415-3.293 33.712 33.712 0 0 0-1.361-3.585 40.121 40.121 0 0 1-4.524 2.5 8.055 8.055 0 0 1-4.659 1.017 4.332 4.332 0 0 1-3.43-4.876 4.521 4.521 0 0 1 1.079-2.217z" class="cls-8" data-name="Path 171" transform="translate(-475.249 -393.325)"/>
                <path id="Path_172" d="M463 362.1c-.162.051-.319.11-.48.167a10.551 10.551 0 0 0-4.351 2.6 4.522 4.522 0 0 0-1.082 2.216 4.331 4.331 0 0 0 3.43 4.876 8.054 8.054 0 0 0 4.659-1.017 40.2 40.2 0 0 0 4.524-2.5 55.168 55.168 0 0 0 6.691-5.1 109.873 109.873 0 0 0 9.882-9.85c.453-.516.892-1.037 1.331-1.554a9.955 9.955 0 0 1-3.391-3.958c-5.507 4.92-10.813 10.474-17.95 13.02h-.006c-1.075.385-2.174.719-3.257 1.1z" class="cls-6" data-name="Path 172" transform="translate(-401.562 -333.679)"/>
                <path id="Path_173" d="M529.022 327.082c.311-1.082.6-1.962.877-2.716a7.619 7.619 0 0 0-1.907-3.03c-.417-.4-.923-.924-.7-1.459s.98-.578 1.572-.528l6.524.547c1.013-.255 1.7-.672 1.232-1.846-.7-1.743-.359-2.723-.751-3.506-.3-.6-.006-.931.45-1.431.548-.6.051-.963.051-.963l-2-2.348a1.728 1.728 0 0 1-.347-.727 9.922 9.922 0 0 0-.477-1.574 11.083 11.083 0 0 0-.532-1.146 3.628 3.628 0 0 1-.935.428c-1.261.388-2.617.337-3.9.617-2.013.437-2.591 1.31-2.675 3.112-.032.711-.926 3.144-.371 3.709-.2-.187-2.094-1.851-3.463-.532-1.455 1.4 2.245 4.187 2.245 4.187s.928 2.438-1.588 7.028a11.208 11.208 0 0 0 4.023 4.748c1.078-.382 2.178-.716 3.252-1.1h.007a32.595 32.595 0 0 1-.587-1.47z" class="cls-4" data-name="Path 173" transform="translate(-464.906 -301.231)"/>
                <path id="Path_174" d="M527.648 365.73c-.221.534.285 1.056.7 1.458a7.616 7.616 0 0 1 1.907 3.03 9.416 9.416 0 0 1 1.946-3.3c.745-.786 2.363-.861 3.538-1.163q-3.261-.27-6.524-.547c-.587-.056-1.344-.016-1.567.522z" class="cls-10" data-name="Path 174" transform="translate(-465.264 -347.083)"/>
                <path id="Path_175" d="M391.179 320.652a9.955 9.955 0 0 0 3.391 3.958 37.3 37.3 0 0 1 3.345-3.618c.287-.262.55-.51.811-.739a8.169 8.169 0 0 1 1.723-1.228c1.144-.6 2.333-1.126 3.5-1.682 1.437-.679 3.2-1.511 4.738-1.215a2.713 2.713 0 0 1 .4.1c.07-1.862-1.4-2.772-3.116-3.128a9.269 9.269 0 0 0-7.675 1.788c-1.349.909-2.6 1.985-3.727 2.878a84.969 84.969 0 0 0-3.39 2.886z" class="cls-4" data-name="Path 175" transform="translate(-308.526 -306.343)"/>
            </g>
        </g>
    </g>
</svg>
