<svg xmlns="http://www.w3.org/2000/svg" width="156.895" height="246.521" viewBox="0 0 156.895 246.521"><defs><style>.a{fill:#8f76ff;}.b{fill:#edd6c0;}.c{fill:#03bbc7;}.d{fill:#324082;}.e{fill:#1dd5e1;}.f{fill:#182668;}.g{fill:#684fe0;}.h{fill:#dcc0af;}.i{fill:#e75e98;}.j{fill:#cd447e;}.k{fill:#456adf;}.l{fill:#5f84f9;}</style></defs><g transform="translate(-30.3 -59.757)"><g transform="translate(30.3 59.757)"><g transform="translate(0 0)"><g transform="translate(0 12.685)"><path class="a" d="M286.125,290.859c-.891,5.018-1.372,10.446-.28,15.326l.694.213c6.937,2.087,14.281,3.191,21.419,2.02a30.811,30.811,0,0,0,10.99-4.015,26.707,26.707,0,0,0,3.659-2.676q.257-8.337.514-16.677c.084-2.752.071-5.65.176-8.548a13.883,13.883,0,0,0-2.76-2.066c-5.018-2.773-11.186-1.192-16.916-1.25a14.385,14.385,0,0,1-7.816-1.986,14.659,14.659,0,0,1-4.483-5.252c-4.32-7.72-5.2-16.92-7.824-25.342-5.867-3.9-10.082-10.267-12.165-17.183a49.423,49.423,0,0,1-1.953-13.829c-2.317-.18-4.629-.473-6.921-.883-.289-.05-.573-.1-.862-.159-.435,5.215.272,10.747,1.02,15.87a56.513,56.513,0,0,0,5.88,18.685c.059.1.113.209.172.313,1.714,1.719,3.492,3.375,5.24,5.018,5.926,5.574,11.96,11.789,13.854,19.83C289.5,275.671,287.455,283.369,286.125,290.859Z" transform="translate(-261.465 -196.563)"/><path class="b" d="M265.178,182.5c2.292.41,4.6.7,6.921.882a49.36,49.36,0,0,1,.418-6.842c.167-1.255-.021-2.735-1.037-3.438a2.727,2.727,0,0,0-3.387.648c-1.313,1.384-1.693,3.718-2.229,5.512A20.7,20.7,0,0,0,265.178,182.5Z" transform="translate(-264.183 -170.352)"/><path class="c" d="M279.773,997.576c.017.916.054,1.781.113,2.584,2.869.226,10.705.97,16.685,1.113A49.262,49.262,0,0,0,279.773,997.576Z" transform="translate(-274.868 -774.199)"/><path class="d" d="M282.657,673.017c-.167,1.4-.556,4.784-.887,8.765q3.833.283,7.674.318c.828.008,1.652.008,2.48,0,5.976-22.979,8.079-29.762,12.328-46.385,2.785-10.9,4.675-21.7,8.163-31.895a74.641,74.641,0,0,1,7.147-15.431c-.009-.192-.009-.385-.009-.577q-3.1-.345-6.164-.907c-3.793-.69-7.561-1.631-11.346-2.392a65.8,65.8,0,0,0-8.334-1.221c-.033,2.061-.188,4.132-.276,6.185q-.47,10.839-1.451,21.645-1.951,21.6-5.926,42.939c-1.171,6.281-2.287,12.6-3.4,18.919A.1.1,0,0,1,282.657,673.017Z" transform="translate(-276.33 -470.909)"/><path class="b" d="M282.068,958.072a3.075,3.075,0,0,0,2.673,1.05,2.2,2.2,0,0,0,1.087-.619c.636-.64,1-1.556,1.878-1.953a2.416,2.416,0,0,1,.351-.13c.075-1.731.2-3.463.359-5.2q-3.839-.031-7.674-.318c-.146,1.756-.28,3.625-.376,5.495A14.609,14.609,0,0,1,282.068,958.072Z" transform="translate(-275.302 -740.032)"/><path class="e" d="M284.273,974.138a3.076,3.076,0,0,1-2.672-1.05,14.6,14.6,0,0,0-1.7-1.673c-.13,2.426-.2,4.847-.159,7.009a49.282,49.282,0,0,1,16.8,3.7c4.111.1,7.347-.083,7.494-.916.075-.422-.226-.773-.627-1.054a4.925,4.925,0,0,0-.694-.389c-1.175-.548-2.68-1.092-4.194-1.694a8.963,8.963,0,0,1-5.089.958,10.017,10.017,0,0,1-4.558-2.3,32.315,32.315,0,0,1-3.509-3.2A2.21,2.21,0,0,1,284.273,974.138Z" transform="translate(-274.835 -755.048)"/><path class="c" d="M302.98,971.221a2.4,2.4,0,0,0-.351.13c-.874.4-1.242,1.313-1.878,1.953a32.319,32.319,0,0,0,3.509,3.2,10.01,10.01,0,0,0,4.558,2.3,8.958,8.958,0,0,0,5.089-.957c-2.246-.9-4.512-1.92-5.763-3.287-.535-.581-.941-1.25-1.48-1.828C305.74,971.756,304.389,970.806,302.98,971.221Z" transform="translate(-290.226 -754.832)"/><path class="f" d="M325.772,565.017c.012.485.033.97.071,1.451.084,1.142.1,2.292.079,3.446a65.888,65.888,0,0,1,8.334,1.221,19.668,19.668,0,0,1-1.334-3.986C330.548,566.414,328.189,565.594,325.772,565.017Z" transform="translate(-308.544 -457.528)"/><path class="g" d="M305.533,401.465c-1.091-4.88-.611-10.308.28-15.326,1.33-7.49,3.379-15.188,1.639-22.59-1.894-8.042-7.929-14.256-13.854-19.831-1.748-1.643-3.525-3.3-5.24-5.018,3.822,6.942,9.422,12.918,11.868,20.5,2.242,6.938,1.585,14.5.439,21.721-.97,6.105-2.283,12.224-2.43,18.384a1.457,1.457,0,0,1,.146.033C300.8,399.91,303.157,400.729,305.533,401.465Z" transform="translate(-281.153 -291.843)"/><path class="f" d="M405.446,696.2c4.286-31.6-1.836-62.472-2.145-93.882a74.627,74.627,0,0,0-7.147,15.431c2.932,26.659,7.69,52.666,3.2,79.045.469-.013.937-.038,1.405-.071Q403.115,696.57,405.446,696.2Z" transform="translate(-360.07 -484.838)"/><path class="f" d="M353.158,568.323l-.694-.213A19.669,19.669,0,0,0,353.8,572.1c3.785.761,7.552,1.7,11.345,2.392q3.061.565,6.164.907l.343.038a89.591,89.591,0,0,0,14.131.4q-.069-4.767-.214-9.505a30.82,30.82,0,0,1-10.99,4.014C367.439,571.514,360.1,570.41,353.158,568.323Z" transform="translate(-328.084 -458.488)"/><path class="d" d="M422.8,600.168c0,.192,0,.385.009.577.108-.18.221-.36.334-.54Z" transform="translate(-379.575 -483.261)"/><path class="b" d="M417.6,959.288a2.133,2.133,0,0,0,1.054-.681c.6-.673.92-1.61,1.773-2.057a3.019,3.019,0,0,1,.343-.15c-.021-1.907.029-3.818.1-5.729q-1.505.326-3.028.556-2.328.37-4.684.522c-.046,1.631-.075,3.35-.071,5.069a14.894,14.894,0,0,1,1.794,1.576A3.062,3.062,0,0,0,417.6,959.288Z" transform="translate(-372.467 -739.86)"/><path class="e" d="M417.6,976.087a3.062,3.062,0,0,1-2.718-.9,14.955,14.955,0,0,0-1.794-1.576c0,2.467.063,4.931.226,7.118a75,75,0,0,1,16.468,2.634c4.345-.117,7.824-.481,7.929-1.354.079-.653-.715-1.092-1.4-1.363-1.2-.481-2.735-.937-4.282-1.455a8.957,8.957,0,0,1-5.026,1.25,9.993,9.993,0,0,1-4.675-2.041,31.934,31.934,0,0,1-3.676-3A2.135,2.135,0,0,1,417.6,976.087Z" transform="translate(-372.468 -756.658)"/><path class="c" d="M433.865,973.873a31.94,31.94,0,0,0,3.676,3,9.992,9.992,0,0,0,4.675,2.041,8.952,8.952,0,0,0,5.027-1.25c-2.292-.761-4.608-1.656-5.93-2.948-.56-.552-1-1.2-1.572-1.74-.974-.933-2.375-1.8-3.759-1.309a2.989,2.989,0,0,0-.343.151C434.785,972.263,434.467,973.2,433.865,973.873Z" transform="translate(-387.677 -755.126)"/><path class="g" d="M356.014,330.428a14.383,14.383,0,0,0,7.816,1.986c5.729.059,11.9-1.522,16.916,1.25a13.873,13.873,0,0,1,2.76,2.066,43.744,43.744,0,0,1,1.61-11.337c1.711-5.482,5.3-10.091,8.021-15.117q1-1.838,1.827-3.76a41.605,41.605,0,0,1-2.848-8.623,26.114,26.114,0,0,0-2.978-7.439c-.1.523-.222,1.045-.343,1.564-.7,2.944-1.719,5.942-3.818,8.063-2.689,2.71-6.628,3.5-10.337,4.1q-1.5.245-3.011.464c-.167,1.179-.339,2.363-.506,3.542-.255,1.769-.447,3.584-.7,5.378-.138.958-.293,1.911-.485,2.848a13.771,13.771,0,0,1-8.3-2.727,13.166,13.166,0,0,1-5.014-8.255c-.013-.054-.021-.113-.029-.171a29.885,29.885,0,0,1-11.069-3.325c-.623-.343-1.229-.707-1.819-1.1,2.622,8.422,3.5,17.622,7.825,25.342A14.659,14.659,0,0,0,356.014,330.428Z" transform="translate(-321.673 -255.791)"/><path class="c" d="M430.4,1002.817a74.957,74.957,0,0,0-16.468-2.635c.063.87.142,1.7.243,2.463C416.968,1002.7,424.483,1002.984,430.4,1002.817Z" transform="translate(-373.085 -776.108)"/><path class="d" d="M422.83,600.849c.31,31.41,6.431,62.284,2.145,93.882q1.525-.232,3.028-.556c.514-.109,1.029-.23,1.539-.36,1.372-7.347,2.672-14.749,3.684-22.084a473.866,473.866,0,0,0,4.069-71.02,89.619,89.619,0,0,1-14.131-.4C423.052,600.489,422.939,600.668,422.83,600.849Z" transform="translate(-379.599 -483.364)"/><path class="b" d="M509.385,165.847c-1.685-1.322-6.628-4.019-5.692.339.435,2.024.656,3.5,1.263,5.47.2.648.385,1.3.556,1.961q3.375-.445,6.691-1.225c-.042-.109-.088-.213-.134-.318C511.162,170,510.376,167.909,509.385,165.847Z" transform="translate(-438.712 -163.803)"/><path class="a" d="M517.493,195.862q-3.313.778-6.691,1.225a52.861,52.861,0,0,1,.665,23.849,26.092,26.092,0,0,1,2.977,7.439A41.639,41.639,0,0,0,517.292,237,52.76,52.76,0,0,0,517.493,195.862Z" transform="translate(-444.002 -187.273)"/><g transform="translate(33.239 11.014)"><path class="f" d="M387.087,211.893c-3.643,6.294-.088,12.8,2.6,18.5.226.611.452,1.217.661,1.827.941-.088,1.882-.218,2.81-.393a30.422,30.422,0,0,0-.882-3.425,5.965,5.965,0,0,1-1.631-3.007c-.2-1.443.92-3.145,2.4-2.99a3.073,3.073,0,0,1,2.267,2.179c.264.686.443,1.418.74,2.082l2.639-.941c-1.514-2.864-2.225-7.653.531-10.1.636-.38,1.459-1.229,2.3-1.255,3.362.2,6.8,2.986,10,3.074a4.818,4.818,0,0,0,3.58-1.393c2.459-2.956.661-7.038-2.342-8.6C404.63,203.554,391.942,203.5,387.087,211.893Z" transform="translate(-385.534 -204.913)"/><path class="a" d="M394.928,339.153a8.991,8.991,0,0,1-2.037,1.522c.845.092,1.694.151,2.538.184A11.081,11.081,0,0,1,394.928,339.153Z" transform="translate(-390.92 -303.189)"/><path class="b" d="M402.1,326.651a5.752,5.752,0,0,1-1.61,3.086,11.1,11.1,0,0,0,.5,1.706c.142.008.289.012.431.017a67.379,67.379,0,0,0,11.776-.845c.125-.87.247-1.735.372-2.605a57.026,57.026,0,0,1-11.429-1.719C402.137,326.412,402.12,326.529,402.1,326.651Z" transform="translate(-396.485 -293.772)"/><path class="b" d="M402.366,343.259a12.376,12.376,0,0,0,3.55,5.081,12.956,12.956,0,0,0,7.448,3.011c.255-1.794.448-3.609.7-5.378.167-1.179.339-2.363.506-3.542a67.39,67.39,0,0,1-11.776.845C402.655,343.272,402.508,343.267,402.366,343.259Z" transform="translate(-397.856 -305.589)"/><path class="h" d="M405.434,292.607a30.479,30.479,0,0,1,.883,3.425c-.928.175-1.869.305-2.81.393a12.633,12.633,0,0,1,.845,5.206,57.01,57.01,0,0,0,11.429,1.719c.088-.623.176-1.242.268-1.865a7.556,7.556,0,0,1-2.739-1.054,18.816,18.816,0,0,1-3.684-3.308l-3.567-3.83C405.848,293.067,405.639,292.841,405.434,292.607Z" transform="translate(-398.691 -269.113)"/><path class="a" d="M396.938,353.232a13.771,13.771,0,0,0,8.3,2.726c.192-.937.347-1.89.485-2.848a12.956,12.956,0,0,1-7.448-3.011,12.376,12.376,0,0,1-3.55-5.081c-.845-.033-1.694-.092-2.539-.184-.083.05-.171.1-.259.142A13.167,13.167,0,0,0,396.938,353.232Z" transform="translate(-390.212 -307.348)"/><path class="b" d="M406.957,248.271c-1.484-.154-2.6,1.548-2.4,2.99a5.965,5.965,0,0,0,1.631,3.007c.2.234.414.46.623.686l3.567,3.831a18.819,18.819,0,0,0,3.684,3.308,7.56,7.56,0,0,0,2.739,1.054,5.325,5.325,0,0,0,2.041-.059,6.16,6.16,0,0,0,3.655-2.764,14.046,14.046,0,0,0,1.668-4.308,45.17,45.17,0,0,0,1.276-12.7c-3.2-.088-6.637-2.873-10-3.074-.845.025-1.669.874-2.3,1.255-2.756,2.446-2.045,7.235-.531,10.1l-2.639.941c-.3-.665-.477-1.4-.74-2.083A3.073,3.073,0,0,0,406.957,248.271Z" transform="translate(-399.441 -230.774)"/></g></g><g transform="translate(0.995)"><path class="b" d="M266.1,176.417a13.472,13.472,0,0,0,2.4,1.961,4.549,4.549,0,0,0,.3-.417,12.04,12.04,0,0,0,1.354-3.76,18.32,18.32,0,0,0-1.9-1.364,2.724,2.724,0,0,0-1.388-.507,1.863,1.863,0,0,0-1.676,1.7A3.1,3.1,0,0,0,266.1,176.417Z" transform="translate(-265.178 -157.36)"/><path class="e" d="M276.124,183.938a33.923,33.923,0,0,0,9.5,6.339c.524.112,1.049.211,1.573.3a34.206,34.206,0,0,1,7.159,1.763,12.63,12.63,0,0,1,1.668.83l.387-1.108a8.44,8.44,0,0,1,3.511-4.289c.924-.516,2-.812,2.991-1.247-1.779-.22-3.55-.5-5.311-.808a92.716,92.716,0,0,1-11.491-2.656,28.9,28.9,0,0,1-5.518-2.005,17.913,17.913,0,0,1-2.424-1.75,12.042,12.042,0,0,1-1.354,3.76,4.582,4.582,0,0,1-.3.417A4.818,4.818,0,0,1,276.124,183.938Z" transform="translate(-273.192 -162.472)"/><path class="c" d="M311.573,220.24c2.084,1.018,4.19,1.938,6.154,2.853,8.805,4.1,2.063,14.576,2.634,21.633a11.243,11.243,0,0,0,.812,2.387,3.966,3.966,0,0,1,.567-1.081,4.533,4.533,0,0,1,2.338-1.889c.241-.04.486-.076.731-.112a26.944,26.944,0,0,1,1.035-7.156c.752-3.235,1.375-6.784-.047-9.771a9.42,9.42,0,0,0-3.825-3.966,12.637,12.637,0,0,0-1.668-.83,34.21,34.21,0,0,0-7.159-1.763C312.622,220.451,312.1,220.352,311.573,220.24Z" transform="translate(-299.143 -192.435)"/><path class="i" d="M355.251,308.376a12.982,12.982,0,0,0-4.671.032c-.245.036-.49.072-.731.112a4.532,4.532,0,0,0-2.338,1.889,3.97,3.97,0,0,0-.567,1.081,2.831,2.831,0,0,0-.164,1.135c.1,1.552,2.028,3.365,2.845,4.608,2.351,3.589,2.991,8.057,3.3,12.373a83.442,83.442,0,0,0,.9,9.525,17.739,17.739,0,0,0,5.5-.318c.541-.112,1.075-.256,1.6-.422a144.549,144.549,0,0,0-.1-16.716c-.1-1.633-.081-3.558-.271-5.442-.284-2.858-1.053-5.621-3.477-7.12a6.039,6.039,0,0,0-1.826-.736Z" transform="translate(-324.914 -256.811)"/><path class="e" d="M357.9,205.493a13.25,13.25,0,0,1,4.01-.659c2.716-.058,5.428.431,8.139.314a10.02,10.02,0,0,0,1.208-.121,3.943,3.943,0,0,0,2.11-.987c1.388-1.364.254-4.105.228-5.823a17.894,17.894,0,0,1,.137-2.49,19.044,19.044,0,0,1-.382-3.235,11.5,11.5,0,0,1,2.875-8.358c2.892-2.957,7.447-3.414,11.164-5.1a27.5,27.5,0,0,0,2.544-3.113c.885-1.252,2.11-2.27,3.042-3.526.284-.382.554-.772.808-1.176a6.593,6.593,0,0,1-3.244-3.58,16.893,16.893,0,0,1-2.669,2.961,25.982,25.982,0,0,1-3.812,3.23,31.256,31.256,0,0,1-10.915,4.074c-1.229.22-2.462.377-3.7.484-.417.036-.838.063-1.259.085,0,.117.009.238.013.354.051,1.247-1.036,1.974-2.17,2.31a5.7,5.7,0,0,1-4.667-.835,9.4,9.4,0,0,1-2.235-2.1q-.922-.094-1.844-.215c-.988.435-2.067.731-2.991,1.247a8.44,8.44,0,0,0-3.511,4.289l-.387,1.108a9.421,9.421,0,0,1,3.825,3.966c1.422,2.988.8,6.537.047,9.771a26.942,26.942,0,0,0-1.035,7.156,12.982,12.982,0,0,1,4.671-.032Z" transform="translate(-327.561 -153.927)"/><path class="e" d="M378.592,422.529a17.734,17.734,0,0,1-5.5.318,23.6,23.6,0,0,0,.842,3.288c.12.359.258.718.413,1.068a14.46,14.46,0,0,0,9.48-.274,2.266,2.266,0,0,0-.55-1.377c-1-1.068-2.832-.5-4.074-1.247Z" transform="translate(-344.177 -340.528)"/><path class="j" d="M380.255,307.846c2.424,1.5,3.193,4.262,3.477,7.12a16.937,16.937,0,0,1,4.559.731,17.752,17.752,0,0,1,4.594,2.584c3.262,2.135,5.183,5.805,7.37,9.08a48.975,48.975,0,0,0,6.5,7.838,27.425,27.425,0,0,1,3.189-2.625,25.812,25.812,0,0,1,2.183-1.413q-4.223-7.053-8.444-14.11a30.064,30.064,0,0,0-3.812-5.42,21.929,21.929,0,0,0-8.088-4.989,10.032,10.032,0,0,1-1.208.121c-2.711.117-5.423-.372-8.139-.314a13.253,13.253,0,0,0-4.01.659A6.039,6.039,0,0,1,380.255,307.846Z" transform="translate(-348.087 -255.545)"/><path class="h" d="M381.5,178.573a32.087,32.087,0,0,0,4.366,4.343,12.027,12.027,0,0,0,4.705,2.31,12.662,12.662,0,0,1,.12-1.862,6.746,6.746,0,0,1-1.435-.269,12.9,12.9,0,0,1-4.327-2.553c-1.113-.906-1.715-1.979-2.944-2.719-.331-.2-.679-.381-1.005-.588a5.665,5.665,0,0,0,.318.911c.064.139.133.278.2.422Z" transform="translate(-349.955 -160.952)"/><path class="d" d="M370.371,129.427c1.341.22,1.741,3.132,3.283,2.584,1.715-.61-.67-3.32-.9-4.3-.993-4.172,3.085-5.267,6.184-4.477,1.328.341,3.627,1.135,5.294.767a2.381,2.381,0,0,0,1.947-2.091c.529-2.858-3.777-4.563-5.849-5.038-1.852-.426-3.631.269-5.462-.05-1.6-.278-3.214-.906-4.46.619-.868,1.068-.55,2.508-1.741,3.378-1,.722-3.068.785-3.39,2.248s2.131,2.445.752,3.786c-.512.5-1.281.413-1.577,1.2-.309.821.288,1.606.782,2.171a18.021,18.021,0,0,1,2.617,4.159,4.683,4.683,0,0,0,2.419,2.5,7.95,7.95,0,0,0-.932-2.808l0,0c-.065-.144-.133-.283-.2-.422a5.64,5.64,0,0,1-.318-.911C368.429,131.253,368.395,129.1,370.371,129.427Z" transform="translate(-337.791 -116.453)"/><path class="b" d="M382.984,207.061a9.4,9.4,0,0,0,2.235,2.1,5.7,5.7,0,0,0,4.667.835c1.135-.336,2.222-1.063,2.17-2.31,0-.117-.009-.238-.013-.354A56.647,56.647,0,0,1,382.984,207.061Z" transform="translate(-351.423 -182.786)"/><path class="b" d="M385.247,149.881c-1.543.547-1.942-2.364-3.283-2.584-1.977-.323-1.942,1.826-1.556,3.311.327.207.675.386,1.006.588,1.229.74,1.831,1.812,2.944,2.719a12.9,12.9,0,0,0,4.327,2.553,6.756,6.756,0,0,0,1.435.269,5.04,5.04,0,0,0,3.344-.879c1.624-1.189,2.295-3.369,2.669-5.428a18.145,18.145,0,0,0-.31-8.56c-1.668.368-3.967-.426-5.294-.767-3.1-.79-7.177.305-6.184,4.477C384.577,146.561,386.962,149.271,385.247,149.881Z" transform="translate(-349.384 -134.324)"/><path class="b" d="M385.607,186.57a32.092,32.092,0,0,1-4.366-4.343,7.947,7.947,0,0,1,.932,2.808,3.018,3.018,0,0,1-.657,2.1,4.3,4.3,0,0,1-.889.857c.2.3.408.6.632.884a56.646,56.646,0,0,0,9.059.274c0-.09,0-.184,0-.274A12.026,12.026,0,0,1,385.607,186.57Z" transform="translate(-349.697 -164.606)"/><path class="c" d="M438.954,215.272a11.5,11.5,0,0,0-2.875,8.358,19.032,19.032,0,0,0,.382,3.235,17.18,17.18,0,0,1,1.238-4.594,25.749,25.749,0,0,1,3.648-5.437c1.186-1.566,2.6-2.1,4.28-3.064a19.988,19.988,0,0,0,4.491-3.594C446.4,211.858,441.846,212.315,438.954,215.272Z" transform="translate(-390.289 -185.066)"/><path class="e" d="M489.606,403.785a6.707,6.707,0,0,1-2.252-1.149,27.412,27.412,0,0,0-3.189,2.625,47,47,0,0,0,4.126,3.607,17.3,17.3,0,0,0,6.471-6.317,2.8,2.8,0,0,0-1.2-.39C492.257,402,490.757,403.215,489.606,403.785Z" transform="translate(-425.496 -325.607)"/><path class="b" d="M501.139,154.928a11.593,11.593,0,0,1-.885,1.471,6.593,6.593,0,0,0,3.244,3.58,19.684,19.684,0,0,0,1.564-2.965,5.307,5.307,0,0,0,.554-2.831,2.122,2.122,0,0,0-1.865-1.9,2.187,2.187,0,0,0-1.646.92A9.84,9.84,0,0,0,501.139,154.928Z" transform="translate(-437.275 -142.685)"/></g><g transform="translate(33.239 23.699)"><path class="f" d="M387.087,211.893c-3.643,6.294-.088,12.8,2.6,18.5.226.611.452,1.217.661,1.827.941-.088,1.882-.218,2.81-.393a30.422,30.422,0,0,0-.882-3.425,5.965,5.965,0,0,1-1.631-3.007c-.2-1.443.92-3.145,2.4-2.99a3.073,3.073,0,0,1,2.267,2.179c.264.686.443,1.418.74,2.082l2.639-.941c-1.514-2.864-2.225-7.653.531-10.1.636-.38,1.459-1.229,2.3-1.255,3.362.2,6.8,2.986,10,3.074a4.818,4.818,0,0,0,3.58-1.393c2.459-2.956.661-7.038-2.342-8.6C404.63,203.554,391.942,203.5,387.087,211.893Z" transform="translate(-385.534 -204.913)"/><path class="b" d="M401.3,331.443c-.093-.242-.173-.488-.249-.736q-.07-.546-.141-1.092a5.723,5.723,0,0,0,1.5-2.964c.017-.121.033-.239.042-.36a57,57,0,0,0,11.429,1.719c-.126.87-.247,1.735-.372,2.605a67.379,67.379,0,0,1-11.776.845C401.59,331.456,401.444,331.452,401.3,331.443Z" transform="translate(-396.792 -293.772)"/><path class="b" d="M402.366,343.259a12.376,12.376,0,0,0,3.55,5.081,12.956,12.956,0,0,0,7.448,3.011c.255-1.794.448-3.609.7-5.378.167-1.179.339-2.363.506-3.542a67.39,67.39,0,0,1-11.776.845C402.655,343.272,402.508,343.267,402.366,343.259Z" transform="translate(-397.856 -305.589)"/><path class="h" d="M405.434,292.607a30.479,30.479,0,0,1,.883,3.425c-.928.175-1.869.305-2.81.393a12.633,12.633,0,0,1,.845,5.206,57.01,57.01,0,0,0,11.429,1.719c.088-.623.176-1.242.268-1.865a7.556,7.556,0,0,1-2.739-1.054,18.816,18.816,0,0,1-3.684-3.308l-3.567-3.83C405.848,293.067,405.639,292.841,405.434,292.607Z" transform="translate(-398.691 -269.113)"/><path class="a" d="M402.5,352.2c-.162-2.242-.424-4.477-.709-6.708l.155.008a12.374,12.374,0,0,0,3.55,5.081,12.956,12.956,0,0,0,7.448,3.011c-.138.958-.293,1.911-.485,2.848a13.772,13.772,0,0,1-8.3-2.727A12.685,12.685,0,0,1,402.5,352.2Z" transform="translate(-397.433 -307.828)"/><path class="b" d="M406.957,248.271c-1.484-.154-2.6,1.548-2.4,2.99a5.965,5.965,0,0,0,1.631,3.007c.2.234.414.46.623.686l3.567,3.831a18.819,18.819,0,0,0,3.684,3.308,7.56,7.56,0,0,0,2.739,1.054,5.325,5.325,0,0,0,2.041-.059,6.16,6.16,0,0,0,3.655-2.764,14.046,14.046,0,0,0,1.668-4.308,45.17,45.17,0,0,0,1.276-12.7c-3.2-.088-6.637-2.873-10-3.074-.845.025-1.669.874-2.3,1.255-2.756,2.446-2.045,7.235-.531,10.1l-2.639.941c-.3-.665-.477-1.4-.74-2.083A3.073,3.073,0,0,0,406.957,248.271Z" transform="translate(-399.441 -230.774)"/></g></g><g transform="translate(34.752 44.653)"><path class="e" d="M815.362,897.673v0a8.438,8.438,0,0,0,2.313-3.751,11.042,11.042,0,0,0-.786-6.468,24.652,24.652,0,0,1-1.87-6.353,7.145,7.145,0,0,1,.514-3.328h0a7.4,7.4,0,0,1,5.176.378,3.206,3.206,0,0,1,1.791,3.788c-.82,3.061.312,6.175.727,10.243.507,4.948-4.6,10.023-7.221,10.872s-.92-2.409-.92-2.409C815.206,899.537,815.3,898.559,815.362,897.673Z" transform="translate(-701.123 -718.236)"/><path class="b" d="M688.44,792.433c-.013-.816-.036-1.635-.076-2.451a14.76,14.76,0,0,0,5.251-1.265c8.019,9.063,18.13,20.411,19.851,21.92,2.644,2.31,3.583,2.4,3.583,2.4.235-.093.468-.174.7-.243a7.149,7.149,0,0,0-.514,3.329,24.642,24.642,0,0,0,1.87,6.353,11.043,11.043,0,0,1,.786,6.468,8.444,8.444,0,0,1-2.313,3.751c.41-6.024-.612-7.432-3.917-11.66a81.807,81.807,0,0,0-6.745-6.523l-25.936-23.864c.728-.137,1.46-.25,2.2-.322,1.032-.108,2.035-.158,3.014-.209a9.016,9.016,0,0,0,1.7,2.327Z" transform="translate(-603.343 -653.262)"/><path class="k" d="M642.079,639.02a55.071,55.071,0,0,0-6.292,1.677,50.162,50.162,0,0,0-2.8-9.227c-1.871-4.526-4.425-8.9-5.008-13.731-.839-6.928,2.489-13.561,5.258-19.961,2.209-5.1,4.092-10.815,3.323-16.181a20.956,20.956,0,0,1,1.666,2.467c3.995,6.926,5.375,14.851,9.292,21.818a29.937,29.937,0,0,0,8.082,9.512c3.8,2.8,8.372,1.734,12.72,1.848.326.013-.679,4.791-.752,5.147-.576,2.692-.63,4.937-2.394,7.228-.217.284-.447.553-.687.813a18.887,18.887,0,0,1-14.527-5.611c-2.467-2.561-4.211-5.848-7.119-7.9-.974-.688-2.308-1.215-3.326-.6-1.381.843-1.034,2.918-.447,4.424.927,2.371,2.013,4.679,3.1,6.98q2.148,4.544,4.3,9.088c.264.558.531,1.121.832,1.67-.979.051-1.982.1-3.015.209C643.539,638.77,642.807,638.883,642.079,639.02Z" transform="translate(-564.438 -501.633)"/><path class="l" d="M693.734,724.579a16.953,16.953,0,0,1-3.012,2.539c-1.734,1.185-3.622,2.172-5.4,3.346a11.327,11.327,0,0,1-1.362.771,14.761,14.761,0,0,1-5.251,1.266c-.707.058-1.429.094-2.161.137-.3-.549-.568-1.111-.832-1.67q-2.153-4.545-4.3-9.088c-1.091-2.3-2.178-4.61-3.1-6.981-.587-1.506-.934-3.582.447-4.424,1.019-.619,2.353-.093,3.327.6,2.908,2.05,4.652,5.337,7.119,7.9A18.886,18.886,0,0,0,693.734,724.579Z" transform="translate(-593.689 -595.782)"/><path class="b" d="M702.7,795.891l-.538.013a9.018,9.018,0,0,1-1.7-2.327c.731-.042,1.454-.078,2.161-.137Q702.684,794.664,702.7,795.891Z" transform="translate(-617.604 -656.72)"/><path class="i" d="M535.379,289.348a2.382,2.382,0,0,1-.949-1.1,2.665,2.665,0,0,1,.571-2.571c2.1-2.554,6.953-2.851,9.957-2.342,5.657.973,10.656,1.375,14.174,5.8,1.378,1.728,2.226,3.85,3.857,5.36,2.812,2.605,7.424,2.921,9.861,5.861,3.557,4.283.282,11.129,3.189,15.845,1.888,3.064,5.768,4.26,8.765,6.338a15.4,15.4,0,0,1,6.62,12.325,10.081,10.081,0,0,1-.105,1.5c-.508,3.639-2.914,7.225-6.617,7.453-2.1.129-4.671-.694-5.991.876s0,3.832.376,5.822c.6,3.144-1.469,6.221-4.28,7.93-.085-.144-.174-.288-.267-.426-1.788-2.691-4.4-4.776-6.38-7.325-4.632-5.952-4.661-13.178-2.374-19.9,1.575-4.625,6.453-9.254.969-13.669-4.6-3.7-11.712.032-16.939-2.875a27.347,27.347,0,0,1-1.456-2.368c-3.057-5.575-1.929-8.536-1.929-8.536s4.493-3.388,2.726-5.085c-1.662-1.6-3.959.419-4.206.647.674-.687-.411-3.64-.45-4.5-.1-2.19-.8-3.25-3.248-3.78-1.562-.339-3.209-.278-4.741-.749A4.413,4.413,0,0,1,535.379,289.348Z" transform="translate(-495.953 -283.124)"/><path class="j" d="M603.586,441.423h0c-.138-.129-.278-.271-.409-.419l0,0c-2.163-2.419-3.006-6.576-3.308-10.123-.015-.159-.036-.315-.039-.477a43.111,43.111,0,0,1-.028-5.978c-.776-8.412-.885-12.517-2.231-16.271a28.861,28.861,0,0,0-4.431-7.6c-.311-.421-.608-.836-.876-1.235a.193.193,0,0,1-.021-.035c5.226,2.907,12.335-.829,16.939,2.875,5.484,4.415.6,9.044-.97,13.669-2.287,6.719-2.258,13.945,2.374,19.9,1.984,2.549,4.593,4.634,6.38,7.325.094.137.182.282.267.426-.31.185-.629.357-.953.509a18.5,18.5,0,0,1-6.4,1.509c-.552.046-1.11.079-1.661.1-1.378-1.364-2.882-2.633-4.44-4C603.7,441.541,603.646,441.484,603.586,441.423Z" transform="translate(-538.37 -368.161)"/><path class="l" d="M530.844,620.686c-.236-.084-.476-.172-.712-.256-2.174-.761-4.368-1.182-6.585-1.763-2.82-.74-2.188-1.755-1.764-4.605a55.976,55.976,0,0,1,4.475-14.025c2.433-5.562,5.192-11.025,6.759-16.878v0l0,0a71.482,71.482,0,0,0,9.1-12.581c2.794-4.956,5.148-10.493,9.616-13.99.06.061.117.118.182.172,1.558,1.364,3.062,2.632,4.44,4a26.8,26.8,0,0,1,2.273,2.532h.008c.768,5.366-1.115,11.077-3.323,16.181-2.768,6.4-6.1,13.034-5.258,19.962.582,4.828,3.137,9.205,5.008,13.731a50.2,50.2,0,0,1,2.8,9.226c-4.332,1.357-8.639,2.777-13.566,2.273-.765-.081-1.516-.194-2.269-.343h0C538.2,623.563,534.545,622.015,530.844,620.686Z" transform="translate(-486.519 -483.319)"/><path class="e" d="M536.411,973.084a3.138,3.138,0,0,1-1.664,3.8c-2.892,1.451-4.488,4.339-7.3,7.351-3.421,3.662-10.775,3.387-13.207,2.077s1.207-2.262,1.207-2.262c.921-.648,1.728-1.237,2.439-1.78a9.132,9.132,0,0,0,4.44-.849,11.217,11.217,0,0,0,4.39-4.881,24.692,24.692,0,0,1,3.558-5.572,7.532,7.532,0,0,1,2.877-1.846A7.083,7.083,0,0,1,536.411,973.084Z" transform="translate(-480.657 -785.339)"/><path class="b" d="M544.743,841.932c.232.107.451.223.661.345a7.532,7.532,0,0,0-2.878,1.846,24.688,24.688,0,0,0-3.558,5.572,11.211,11.211,0,0,1-4.39,4.881,9.13,9.13,0,0,1-4.44.849c4.876-3.725,5.25-5.4,6.208-10.584a78.41,78.41,0,0,0,.365-9.175l.523-39.81c3.7,1.329,7.356,2.878,11.185,3.626h0c-1.374,11.083-4.329,35.362-4.292,38.285C544.172,841.2,544.743,841.932,544.743,841.932Z" transform="translate(-492.911 -658.49)"/><path class="k" d="M579.732,556.68q1.689-.778,3.311-1.681l0,0c.131.148.271.289.409.419h0c-4.468,3.5-6.822,9.034-9.616,13.99a71.526,71.526,0,0,1-9.1,12.581h0c.07-.25.141-.5.205-.76,1.71-6.849.871-13.416.113-20.228A52.49,52.49,0,0,0,579.732,556.68Z" transform="translate(-518.244 -482.161)"/><path class="f" d="M613.849,465.238q-1.624.907-3.311,1.681c-2.793-3.4-3.755-8.047-3.714-12.471.042-4.635,1.047-9.2,1.507-13.812a32.785,32.785,0,0,0-.089-8.246c1.346,3.754,1.455,7.859,2.231,16.271a43.131,43.131,0,0,0,.028,5.978c0,.161.024.317.039.476C610.843,458.662,611.685,462.818,613.849,465.238Z" transform="translate(-549.05 -392.4)"/><path class="d" d="M546.778,392.811a.175.175,0,0,0,.021.035c.268.4.565.813.876,1.235a28.848,28.848,0,0,1,4.431,7.6,32.8,32.8,0,0,1,.089,8.246c-.46,4.61-1.465,9.177-1.507,13.812-.041,4.424.921,9.071,3.714,12.471a52.484,52.484,0,0,1-14.67,4.326c-.056-.5-.111-.99-.163-1.488-.694-6.453-2.19-13.595-5.441-19.179-1.006-1.727-2.872-3.395-3.562-5.232a7.591,7.591,0,0,1-.422-2.37,7.185,7.185,0,0,1,3.882-1.023c1.9-.006,3.776.438,5.673.424a9.166,9.166,0,0,0,7.81-4.034c1.535-2.554,1.128-6.26-1.2-8.062a12.812,12.812,0,0,0-5.285-3.16c-.2-.069-.387-.141-.583-.2a13.613,13.613,0,0,0,4.886-5.766A27.394,27.394,0,0,0,546.778,392.811Z" transform="translate(-492.913 -361.691)"/><path class="f" d="M546.285,424.515c2.332,1.8,2.739,5.509,1.2,8.062a9.166,9.166,0,0,1-7.81,4.034c-1.9.015-3.774-.43-5.673-.424a7.186,7.186,0,0,0-3.883,1.023,12.91,12.91,0,0,1,.5-4,40.927,40.927,0,0,1,1.653-4.354,48.743,48.743,0,0,0,5.493,3.035,9.782,9.782,0,0,0,5.659,1.236,5.26,5.26,0,0,0,4.165-5.922A5.49,5.49,0,0,0,546.285,424.515Z" transform="translate(-492.894 -386.635)"/><path class="d" d="M486.913,365.129c.2.061.388.133.583.2a12.814,12.814,0,0,1,5.285,3.16,5.493,5.493,0,0,1,1.314,2.692,5.26,5.26,0,0,1-4.166,5.922,9.782,9.782,0,0,1-5.659-1.236,48.782,48.782,0,0,1-5.494-3.035,67.02,67.02,0,0,1-8.126-6.189,133.456,133.456,0,0,1-12-11.963c-.55-.627-1.083-1.259-1.617-1.887a12.09,12.09,0,0,0,4.118-4.807c6.692,5.966,13.137,12.711,21.8,15.8h.008C484.268,364.259,485.6,364.664,486.913,365.129Z" transform="translate(-439.39 -330.61)"/><path class="b" d="M530.737,331.528c-.377-1.313-.725-2.383-1.065-3.3a9.246,9.246,0,0,1,2.316-3.68c.507-.488,1.121-1.122.853-1.771s-1.19-.7-1.909-.641q-3.968.333-7.923.664c-1.23-.309-2.063-.817-1.5-2.242.849-2.116.436-3.307.912-4.258.359-.724.006-1.13-.547-1.738-.666-.725-.061-1.169-.061-1.169l2.424-2.851a2.1,2.1,0,0,0,.422-.883,12.067,12.067,0,0,1,.58-1.912,13.491,13.491,0,0,1,.646-1.392,4.411,4.411,0,0,0,1.135.52c1.532.471,3.178.41,4.741.749,2.445.53,3.147,1.59,3.248,3.78.039.864,1.124,3.818.45,4.5.247-.228,2.543-2.247,4.205-.646,1.767,1.7-2.726,5.085-2.726,5.085s-1.128,2.961,1.929,8.536a13.612,13.612,0,0,1-4.886,5.766c-1.31-.464-2.645-.87-3.95-1.337h-.007C530.272,332.724,530.512,332.127,530.737,331.528Z" transform="translate(-486.462 -300.132)"/><path class="h" d="M537.426,365.846c.268.649-.346,1.283-.853,1.771a9.247,9.247,0,0,0-2.316,3.68,0,0,0,0,1,0,0,11.432,11.432,0,0,0-2.363-4.011c-.9-.954-2.869-1.046-4.3-1.413q3.961-.328,7.923-.664C536.236,365.144,537.155,365.193,537.426,365.846Z" transform="translate(-491.047 -343.2)"/><path class="b" d="M412.941,322.312a12.092,12.092,0,0,1-4.119,4.807,45.276,45.276,0,0,0-4.062-4.394c-.348-.318-.668-.62-.985-.9a9.927,9.927,0,0,0-2.092-1.491c-1.389-.732-2.833-1.368-4.255-2.043-1.745-.825-3.884-1.835-5.755-1.475a3.308,3.308,0,0,0-.491.127c-.085-2.261,1.7-3.367,3.785-3.8a11.257,11.257,0,0,1,9.321,2.171c1.638,1.1,3.159,2.41,4.526,3.495C410.217,319.921,411.58,321.1,412.941,322.312Z" transform="translate(-391.179 -304.934)"/></g></g></g></svg>