<svg xmlns="http://www.w3.org/2000/svg" width="40" height="40" viewBox="0 0 40 40"><defs><style>.a{fill:#fff9e0;}.b{fill:#ff991f;}</style></defs><g transform="translate(-985 -485)"><rect class="a" width="40" height="40" rx="8" transform="translate(985 485)"/><path class="b" d="M13.958,6.679a2.8,2.8,0,0,1,0-3.983L16.4.272A.937.937,0,1,1,17.723,1.6L15.6,3.7h3.238A5.163,5.163,0,0,1,24,8.855l0,2.582a.937.937,0,0,1-.937.938h0a.937.937,0,0,1-.938-.937l0-2.582a3.285,3.285,0,0,0-3.281-3.278H15.51l2.213,2.193A.937.937,0,1,1,16.4,9.1ZM22.91,16.9a8.721,8.721,0,0,0-3.452-2.294,3.864,3.864,0,0,0-3.968,1.126l-.005.005L14.216,17a18.87,18.87,0,0,1-4-3.092L10.1,13.78a19,19,0,0,1-3.091-4L8.265,8.516l.005-.005A3.864,3.864,0,0,0,9.4,4.543,8.72,8.72,0,0,0,7.1,1.091,3.567,3.567,0,0,0,2.151.913L2.124.937,2.088.971A7.606,7.606,0,0,0,0,6.543C.02,10.4,2.139,14.8,5.667,18.333a22.848,22.848,0,0,0,2.248,1.957A.937.937,0,1,0,9.056,18.8a20.977,20.977,0,0,1-2.063-1.795C3.806,13.82,1.893,9.9,1.876,6.534A5.792,5.792,0,0,1,3.4,2.314L3.4,2.308a1.686,1.686,0,0,1,2.349.085C8.18,4.91,8,6.1,6.931,7.2L5.193,8.949A.938.938,0,0,0,5,9.991a18.946,18.946,0,0,0,3.77,5.116l.123.123A18.941,18.941,0,0,0,14.01,19a.938.938,0,0,0,1.042-.191L16.8,17.07c1.1-1.072,2.288-1.248,4.805,1.179a1.687,1.687,0,0,1,.085,2.349l-.007.007a5.774,5.774,0,0,1-4.177,1.52h-.043a12.152,12.152,0,0,1-4.626-1.095.937.937,0,0,0-.743,1.722A13.829,13.829,0,0,0,17.458,24h.053a7.59,7.59,0,0,0,5.519-2.086l.035-.037.024-.027A3.567,3.567,0,0,0,22.91,16.9Zm0,0" transform="translate(992.999 493.001)"/></g></svg>